<mxfile host="app.diagrams.net" agent="Mozilla/5.0 (Windows NT 10.0; Win64; x64; rv:129.0) Gecko/20100101 Firefox/129.0" version="24.7.12">
  <diagram id="a45cf8ec-cd66-6f27-3ac3-be6e809c9e4a" name="Page-1">
    <mxGraphModel dx="1731" dy="1114" grid="1" gridSize="10" guides="1" tooltips="1" connect="1" arrows="1" fold="1" page="1" pageScale="1" pageWidth="827" pageHeight="1169" background="none" math="0" shadow="0">
      <root>
        <mxCell id="0" />
        <mxCell id="1" parent="0" />
        <mxCell id="i-JdXVQl8PYU1AqyCl5T-204" value="&lt;div align=&quot;center&quot;&gt;&amp;nbsp;入户配电箱&lt;/div&gt;" style="whiteSpace=wrap;html=1;rounded=1;shadow=0;comic=0;strokeWidth=1;fontFamily=Verdana;fontSize=14;verticalAlign=top;fontStyle=1;strokeColor=#6c8ebf;align=center;fillColor=#e8f0fd;" vertex="1" parent="1">
          <mxGeometry x="400" y="250" width="600" height="290" as="geometry" />
        </mxCell>
        <mxCell id="i-JdXVQl8PYU1AqyCl5T-251" style="edgeStyle=orthogonalEdgeStyle;rounded=0;orthogonalLoop=1;jettySize=auto;html=1;endArrow=none;endFill=0;strokeColor=#004080;" edge="1" parent="1" source="49" target="i-JdXVQl8PYU1AqyCl5T-235">
          <mxGeometry relative="1" as="geometry" />
        </mxCell>
        <mxCell id="49" value="&lt;font style=&quot;font-size: 16px;&quot;&gt;互联网&lt;/font&gt;" style="ellipse;shape=cloud;whiteSpace=wrap;html=1;shadow=0;strokeColor=#6c8ebf;fillColor=#dae8fc;fontSize=18;fontStyle=0;gradientDirection=north;strokeWidth=2;" parent="1" vertex="1">
          <mxGeometry x="150" y="120" width="170" height="110" as="geometry" />
        </mxCell>
        <mxCell id="168" value="&lt;font color=&quot;#000000&quot; style=&quot;font-size: 24px;&quot;&gt;&lt;b&gt;使用旁路由的网络典型拓扑&lt;/b&gt;&lt;/font&gt;" style="text;html=1;strokeColor=none;fillColor=none;align=center;verticalAlign=middle;whiteSpace=wrap;overflow=hidden;shadow=0;fontSize=36;fontColor=#AE4132;fontStyle=0;" parent="1" vertex="1">
          <mxGeometry x="486.38000000000005" y="20" width="420" height="45" as="geometry" />
        </mxCell>
        <mxCell id="171" style="edgeStyle=orthogonalEdgeStyle;rounded=0;jumpStyle=none;html=1;exitX=0;exitY=0.5;entryX=0;entryY=0.5;shadow=0;labelBackgroundColor=none;startArrow=none;startFill=0;endArrow=classic;endFill=1;endSize=6;jettySize=auto;orthogonalLoop=1;strokeColor=#23445D;strokeWidth=2;fillColor=#F08705;fontFamily=Helvetica;fontSize=14;fontColor=#F08705;align=left;fontStyle=0;" parent="1" source="168" target="168" edge="1">
          <mxGeometry relative="1" as="geometry" />
        </mxCell>
        <mxCell id="i-JdXVQl8PYU1AqyCl5T-199" style="rounded=0;orthogonalLoop=1;jettySize=auto;html=1;entryX=0;entryY=0.75;entryDx=0;entryDy=0;endArrow=none;endFill=0;" edge="1" parent="1" target="i-JdXVQl8PYU1AqyCl5T-178">
          <mxGeometry relative="1" as="geometry">
            <mxPoint x="609" y="526.5402597402599" as="sourcePoint" />
          </mxGeometry>
        </mxCell>
        <mxCell id="i-JdXVQl8PYU1AqyCl5T-209" value="客厅" style="whiteSpace=wrap;html=1;rounded=1;shadow=0;comic=0;strokeWidth=1;fontFamily=Verdana;fontSize=14;verticalAlign=top;fontStyle=1;strokeColor=#6c8ebf;imageVerticalAlign=bottom;fillColor=#dae8fc;" vertex="1" parent="1">
          <mxGeometry x="110" y="710.33" width="240" height="211.76" as="geometry" />
        </mxCell>
        <mxCell id="i-JdXVQl8PYU1AqyCl5T-210" value="书房" style="whiteSpace=wrap;html=1;rounded=1;shadow=0;comic=0;strokeWidth=1;fontFamily=Verdana;fontSize=14;verticalAlign=top;fontStyle=1;strokeColor=#6c8ebf;fillColor=#dae8fc;" vertex="1" parent="1">
          <mxGeometry x="390" y="708.24" width="320" height="211.76" as="geometry" />
        </mxCell>
        <mxCell id="i-JdXVQl8PYU1AqyCl5T-211" value="卧室" style="whiteSpace=wrap;html=1;rounded=1;shadow=0;comic=0;strokeWidth=1;fontFamily=Verdana;fontSize=14;verticalAlign=top;fontStyle=1;strokeColor=#6c8ebf;fillColor=#dae8fc;" vertex="1" parent="1">
          <mxGeometry x="770" y="708.24" width="330" height="211.76" as="geometry" />
        </mxCell>
        <mxCell id="i-JdXVQl8PYU1AqyCl5T-212" value="" style="image;points=[];aspect=fixed;html=1;align=center;shadow=0;dashed=0;image=img/lib/allied_telesis/computer_and_terminals/IP_TV.svg;" vertex="1" parent="1">
          <mxGeometry x="190.95" y="753.0600000000001" width="78.1" height="80" as="geometry" />
        </mxCell>
        <mxCell id="i-JdXVQl8PYU1AqyCl5T-213" value="" style="verticalLabelPosition=bottom;aspect=fixed;html=1;verticalAlign=top;strokeColor=none;align=center;outlineConnect=0;shape=mxgraph.citrix.desktop;" vertex="1" parent="1">
          <mxGeometry x="440" y="765.8199999999999" width="56.38" height="62.09" as="geometry" />
        </mxCell>
        <mxCell id="i-JdXVQl8PYU1AqyCl5T-215" value="" style="verticalLabelPosition=bottom;aspect=fixed;html=1;verticalAlign=top;strokeColor=none;align=center;outlineConnect=0;shape=mxgraph.citrix.file_server;" vertex="1" parent="1">
          <mxGeometry x="610" y="767.9100000000001" width="43.91" height="60" as="geometry" />
        </mxCell>
        <mxCell id="i-JdXVQl8PYU1AqyCl5T-216" value="" style="verticalLabelPosition=bottom;aspect=fixed;html=1;verticalAlign=top;strokeColor=none;align=center;outlineConnect=0;shape=mxgraph.citrix.pda;" vertex="1" parent="1">
          <mxGeometry x="840" y="760.09" width="29.51" height="60" as="geometry" />
        </mxCell>
        <mxCell id="i-JdXVQl8PYU1AqyCl5T-219" value="" style="verticalLabelPosition=bottom;aspect=fixed;html=1;verticalAlign=top;strokeColor=none;align=center;outlineConnect=0;shape=mxgraph.citrix.tablet_2;" vertex="1" parent="1">
          <mxGeometry x="970" y="760.09" width="55.36" height="58.06" as="geometry" />
        </mxCell>
        <mxCell id="i-JdXVQl8PYU1AqyCl5T-220" value="光猫" style="rounded=1;whiteSpace=wrap;html=1;fillColor=#dae8fc;strokeColor=#6c8ebf;" vertex="1" parent="1">
          <mxGeometry x="470" y="325" width="69" height="20" as="geometry" />
        </mxCell>
        <mxCell id="i-JdXVQl8PYU1AqyCl5T-221" value="&lt;div&gt;智能电视&amp;nbsp;&lt;/div&gt;&lt;div&gt;IP：192.168.1.100&lt;/div&gt;&lt;div&gt;网关：192.168.1.1&lt;br&gt;&lt;/div&gt;" style="rounded=1;whiteSpace=wrap;html=1;fillColor=#dae8fc;strokeColor=#6c8ebf;" vertex="1" parent="1">
          <mxGeometry x="160" y="842.09" width="140" height="50" as="geometry" />
        </mxCell>
        <mxCell id="i-JdXVQl8PYU1AqyCl5T-222" value="&lt;div&gt;PC&amp;nbsp;&lt;/div&gt;&lt;div&gt;IP：192.168.1.101&lt;/div&gt;&lt;div&gt;网关：192.168.1.1&lt;br&gt;&lt;/div&gt;" style="rounded=1;whiteSpace=wrap;html=1;fillColor=#dae8fc;strokeColor=#6c8ebf;" vertex="1" parent="1">
          <mxGeometry x="408.19000000000005" y="840" width="120" height="60" as="geometry" />
        </mxCell>
        <mxCell id="i-JdXVQl8PYU1AqyCl5T-223" value="&lt;div&gt;平板&amp;nbsp;&lt;/div&gt;&lt;div&gt;IP：192.168.1.103&lt;/div&gt;&lt;div&gt;&lt;font color=&quot;#ff0000&quot;&gt;&lt;b&gt;网关：192.168.1.2&lt;/b&gt;&lt;/font&gt;&lt;br&gt;&lt;/div&gt;" style="rounded=1;whiteSpace=wrap;html=1;fillColor=#dae8fc;strokeColor=#6c8ebf;" vertex="1" parent="1">
          <mxGeometry x="960" y="840" width="110" height="60" as="geometry" />
        </mxCell>
        <mxCell id="i-JdXVQl8PYU1AqyCl5T-224" value="&lt;div&gt;&lt;b&gt;NAS&amp;nbsp;&lt;/b&gt;&lt;/div&gt;&lt;div&gt;IP：192.168.1.102&lt;/div&gt;&lt;div&gt;网关：192.168.1.1&lt;br&gt;&lt;/div&gt;" style="rounded=1;whiteSpace=wrap;html=1;fillColor=#dae8fc;strokeColor=#6c8ebf;" vertex="1" parent="1">
          <mxGeometry x="576.95" y="840" width="110" height="60" as="geometry" />
        </mxCell>
        <mxCell id="i-JdXVQl8PYU1AqyCl5T-225" value="&lt;div&gt;&amp;nbsp;手机&amp;nbsp;&lt;/div&gt;&lt;div&gt;IP：192.168.1.103&lt;/div&gt;&lt;div&gt;&lt;font color=&quot;#ff0000&quot;&gt;&lt;b&gt;网关：192.168.1.2&lt;/b&gt;&lt;/font&gt;&lt;br&gt;&lt;/div&gt;" style="rounded=1;whiteSpace=wrap;html=1;fillColor=#dae8fc;strokeColor=#6c8ebf;" vertex="1" parent="1">
          <mxGeometry x="799.75" y="840" width="120.25" height="60" as="geometry" />
        </mxCell>
        <mxCell id="i-JdXVQl8PYU1AqyCl5T-230" value="&lt;div&gt;主路由&lt;/div&gt;&lt;div&gt;&amp;nbsp;192.168.1.1&lt;/div&gt;" style="rounded=1;whiteSpace=wrap;html=1;fillColor=#dae8fc;strokeColor=#6c8ebf;" vertex="1" parent="1">
          <mxGeometry x="436.38" y="450" width="110" height="50" as="geometry" />
        </mxCell>
        <mxCell id="i-JdXVQl8PYU1AqyCl5T-231" value="&lt;font style=&quot;font-size: 14px;&quot;&gt;局域网 1000Mbps/2.5Gbps&lt;/font&gt;" style="html=1;outlineConnect=0;fillColor=#dae8fc;strokeColor=#6c8ebf;gradientDirection=north;strokeWidth=2;shape=mxgraph.networks.bus;gradientColor=none;gradientDirection=north;perimeter=backbonePerimeter;backboneSize=20;" vertex="1" parent="1">
          <mxGeometry x="170" y="620" width="930" height="20" as="geometry" />
        </mxCell>
        <mxCell id="i-JdXVQl8PYU1AqyCl5T-235" value="" style="image;html=1;image=img/lib/clip_art/networking/Modem_128x128.png;" vertex="1" parent="1">
          <mxGeometry x="551.7" y="300" width="70.5" height="70" as="geometry" />
        </mxCell>
        <mxCell id="i-JdXVQl8PYU1AqyCl5T-238" value="" style="image;html=1;image=img/lib/clip_art/networking/Wireless_Router_128x128.png;" vertex="1" parent="1">
          <mxGeometry x="551.7" y="410" width="80" height="80" as="geometry" />
        </mxCell>
        <mxCell id="i-JdXVQl8PYU1AqyCl5T-239" value="" style="image;html=1;image=img/lib/clip_art/networking/Router_128x128.png;" vertex="1" parent="1">
          <mxGeometry x="760" y="420" width="80" height="80" as="geometry" />
        </mxCell>
        <mxCell id="i-JdXVQl8PYU1AqyCl5T-240" value="&lt;div&gt;&lt;b&gt;&lt;font color=&quot;#ff0000&quot;&gt;旁路由&lt;/font&gt;&lt;/b&gt;&lt;/div&gt;&lt;div&gt;&lt;b&gt;&lt;font color=&quot;#ff0000&quot;&gt;IP: 192.168.1.2&lt;/font&gt;&lt;/b&gt;&lt;/div&gt;&lt;div&gt;网关：192.168.1.1&lt;b&gt;&lt;br&gt;&lt;/b&gt;&lt;/div&gt;" style="rounded=1;whiteSpace=wrap;html=1;fillColor=#dae8fc;strokeColor=#6c8ebf;" vertex="1" parent="1">
          <mxGeometry x="860" y="435" width="120" height="50" as="geometry" />
        </mxCell>
        <mxCell id="i-JdXVQl8PYU1AqyCl5T-242" value="" style="endArrow=none;html=1;rounded=0;entryX=0.5;entryY=1;entryDx=0;entryDy=0;strokeColor=#6c8ebf;fillColor=#dae8fc;" edge="1" parent="1" source="i-JdXVQl8PYU1AqyCl5T-231" target="i-JdXVQl8PYU1AqyCl5T-238">
          <mxGeometry width="50" height="50" relative="1" as="geometry">
            <mxPoint x="560" y="600" as="sourcePoint" />
            <mxPoint x="610" y="550" as="targetPoint" />
          </mxGeometry>
        </mxCell>
        <mxCell id="i-JdXVQl8PYU1AqyCl5T-243" value="" style="endArrow=none;html=1;rounded=0;entryX=0.5;entryY=1;entryDx=0;entryDy=0;strokeColor=#6c8ebf;fillColor=#dae8fc;" edge="1" parent="1">
          <mxGeometry width="50" height="50" relative="1" as="geometry">
            <mxPoint x="799.5" y="620" as="sourcePoint" />
            <mxPoint x="799.5" y="490" as="targetPoint" />
          </mxGeometry>
        </mxCell>
        <mxCell id="i-JdXVQl8PYU1AqyCl5T-244" value="" style="endArrow=none;html=1;rounded=0;entryX=0.5;entryY=1;entryDx=0;entryDy=0;strokeColor=#6c8ebf;fillColor=#dae8fc;" edge="1" parent="1">
          <mxGeometry width="50" height="50" relative="1" as="geometry">
            <mxPoint x="250" y="770" as="sourcePoint" />
            <mxPoint x="250" y="640" as="targetPoint" />
          </mxGeometry>
        </mxCell>
        <mxCell id="i-JdXVQl8PYU1AqyCl5T-245" value="" style="endArrow=none;html=1;rounded=0;entryX=0.5;entryY=1;entryDx=0;entryDy=0;strokeColor=#6c8ebf;fillColor=#dae8fc;" edge="1" parent="1">
          <mxGeometry width="50" height="50" relative="1" as="geometry">
            <mxPoint x="468" y="768" as="sourcePoint" />
            <mxPoint x="467.69000000000005" y="637.91" as="targetPoint" />
          </mxGeometry>
        </mxCell>
        <mxCell id="i-JdXVQl8PYU1AqyCl5T-246" value="" style="endArrow=none;html=1;rounded=0;entryX=0.5;entryY=1;entryDx=0;entryDy=0;strokeColor=#6c8ebf;fillColor=#dae8fc;" edge="1" parent="1" source="i-JdXVQl8PYU1AqyCl5T-215">
          <mxGeometry width="50" height="50" relative="1" as="geometry">
            <mxPoint x="630" y="768" as="sourcePoint" />
            <mxPoint x="631.45" y="637.91" as="targetPoint" />
          </mxGeometry>
        </mxCell>
        <mxCell id="i-JdXVQl8PYU1AqyCl5T-247" value="" style="endArrow=none;html=1;rounded=0;entryX=0.5;entryY=1;entryDx=0;entryDy=0;strokeColor=#6c8ebf;fillColor=#dae8fc;" edge="1" parent="1">
          <mxGeometry width="50" height="50" relative="1" as="geometry">
            <mxPoint x="854.25" y="767.91" as="sourcePoint" />
            <mxPoint x="854.25" y="637.91" as="targetPoint" />
          </mxGeometry>
        </mxCell>
        <mxCell id="i-JdXVQl8PYU1AqyCl5T-248" value="" style="endArrow=none;html=1;rounded=0;entryX=0.5;entryY=1;entryDx=0;entryDy=0;strokeColor=#6c8ebf;fillColor=#dae8fc;" edge="1" parent="1">
          <mxGeometry width="50" height="50" relative="1" as="geometry">
            <mxPoint x="997.1800000000001" y="767.91" as="sourcePoint" />
            <mxPoint x="997.1800000000001" y="637.91" as="targetPoint" />
          </mxGeometry>
        </mxCell>
        <mxCell id="i-JdXVQl8PYU1AqyCl5T-249" value="" style="endArrow=none;html=1;rounded=0;entryX=0.5;entryY=1;entryDx=0;entryDy=0;strokeColor=#6c8ebf;fillColor=#dae8fc;" edge="1" parent="1">
          <mxGeometry width="50" height="50" relative="1" as="geometry">
            <mxPoint x="591.2" y="450" as="sourcePoint" />
            <mxPoint x="591.6500000000001" y="370" as="targetPoint" />
          </mxGeometry>
        </mxCell>
        <mxCell id="i-JdXVQl8PYU1AqyCl5T-262" style="rounded=0;orthogonalLoop=1;jettySize=auto;html=1;entryX=0;entryY=0.25;entryDx=0;entryDy=0;exitX=0.896;exitY=0.467;exitDx=0;exitDy=0;exitPerimeter=0;strokeColor=#ff0000;dashed=1;dashPattern=8 8;" edge="1" parent="1" source="i-JdXVQl8PYU1AqyCl5T-255" target="i-JdXVQl8PYU1AqyCl5T-230">
          <mxGeometry relative="1" as="geometry">
            <mxPoint x="240" y="280.0041509433963" as="sourcePoint" />
            <mxPoint x="350" y="282.07962264150956" as="targetPoint" />
          </mxGeometry>
        </mxCell>
        <mxCell id="i-JdXVQl8PYU1AqyCl5T-255" value="&lt;h1 style=&quot;margin-top: 0px;&quot;&gt;&lt;font color=&quot;#000000&quot; style=&quot;font-size: 18px;&quot;&gt;主路由&lt;/font&gt;&lt;font color=&quot;#000000&quot;&gt;&lt;br&gt;&lt;/font&gt;&lt;/h1&gt;&lt;div align=&quot;left&quot;&gt;&lt;ol&gt;&lt;li style=&quot;font-size: 14px;&quot;&gt;&lt;font color=&quot;#000000&quot; style=&quot;font-size: 14px;&quot;&gt;负责PPPOE拨号&lt;/font&gt;&lt;/li&gt;&lt;li style=&quot;font-size: 14px;&quot;&gt;&lt;font color=&quot;#000000&quot; style=&quot;font-size: 14px;&quot;&gt;DHCP服务,分配地址&lt;/font&gt;&lt;/li&gt;&lt;li style=&quot;font-size: 14px;&quot;&gt;&lt;font color=&quot;#000000&quot; style=&quot;font-size: 14px;&quot;&gt;以及其他日常网络管理等。&lt;/font&gt;&lt;/li&gt;&lt;/ol&gt;&lt;/div&gt;" style="strokeWidth=1;shadow=0;dashed=0;align=center;html=1;shape=mxgraph.mockup.text.stickyNote2;fontColor=#666666;mainText=;fontSize=17;whiteSpace=wrap;fillColor=#ffffcc;strokeColor=#F62E00;" vertex="1" parent="1">
          <mxGeometry x="50" y="310" width="240" height="150" as="geometry" />
        </mxCell>
        <mxCell id="i-JdXVQl8PYU1AqyCl5T-256" value="&lt;h1 style=&quot;margin-top: 0px;&quot;&gt;&lt;font color=&quot;#000000&quot; style=&quot;font-size: 18px;&quot;&gt;旁路由&lt;/font&gt;&lt;font color=&quot;#000000&quot;&gt;&lt;br&gt;&lt;/font&gt;&lt;/h1&gt;&lt;div align=&quot;left&quot;&gt;&lt;ol&gt;&lt;li style=&quot;font-size: 14px;&quot;&gt;&lt;font color=&quot;#000000&quot; style=&quot;font-size: 14px;&quot;&gt;网络流量管理\数据包处理&lt;/font&gt;&lt;/li&gt;&lt;li style=&quot;font-size: 14px;&quot;&gt;&lt;font color=&quot;#000000&quot; style=&quot;font-size: 14px;&quot;&gt;本质是个网络代理，&lt;/font&gt;&lt;/li&gt;&lt;li style=&quot;font-size: 14px;&quot;&gt;&lt;font color=&quot;#000000&quot; style=&quot;font-size: 14px;&quot;&gt;可以伪装数据包流量&lt;/font&gt;&lt;/li&gt;&lt;li style=&quot;font-size: 14px;&quot;&gt;&lt;font color=&quot;#000000&quot; style=&quot;font-size: 14px;&quot;&gt;依赖主路由上网功能，网关指向主路由器&lt;/font&gt;&lt;/li&gt;&lt;/ol&gt;&lt;/div&gt;" style="strokeWidth=1;shadow=0;dashed=0;align=center;html=1;shape=mxgraph.mockup.text.stickyNote2;fontColor=#666666;mainText=;fontSize=17;whiteSpace=wrap;fillColor=#ffffcc;strokeColor=#F62E00;" vertex="1" parent="1">
          <mxGeometry x="1040" y="200" width="260" height="190" as="geometry" />
        </mxCell>
        <mxCell id="i-JdXVQl8PYU1AqyCl5T-258" value="&lt;h1 style=&quot;margin-top: 0px;&quot;&gt;&lt;font color=&quot;#000000&quot; style=&quot;font-size: 18px;&quot;&gt;使用旁路由的设备&lt;/font&gt;&lt;font color=&quot;#000000&quot;&gt;&lt;br&gt;&lt;/font&gt;&lt;/h1&gt;&lt;div align=&quot;left&quot;&gt;&lt;ol&gt;&lt;li style=&quot;font-size: 14px;&quot;&gt;&lt;font color=&quot;#000000&quot;&gt;将自身网关设置为旁路由&lt;/font&gt;&lt;/li&gt;&lt;li style=&quot;font-size: 14px;&quot;&gt;&lt;font color=&quot;#000000&quot;&gt;即可通过旁路由的流量处理，实现特定功能。&lt;br&gt;&lt;/font&gt;&lt;/li&gt;&lt;/ol&gt;&lt;/div&gt;" style="strokeWidth=1;shadow=0;dashed=0;align=center;html=1;shape=mxgraph.mockup.text.stickyNote2;fontColor=#666666;mainText=;fontSize=17;whiteSpace=wrap;fillColor=#ffffcc;strokeColor=#F62E00;" vertex="1" parent="1">
          <mxGeometry x="1230" y="680" width="260" height="190" as="geometry" />
        </mxCell>
        <mxCell id="i-JdXVQl8PYU1AqyCl5T-263" style="rounded=0;orthogonalLoop=1;jettySize=auto;html=1;entryX=1;entryY=0.5;entryDx=0;entryDy=0;exitX=0.888;exitY=0.38;exitDx=0;exitDy=0;exitPerimeter=0;strokeColor=#ff0000;dashed=1;dashPattern=8 8;" edge="1" parent="1" target="i-JdXVQl8PYU1AqyCl5T-240">
          <mxGeometry relative="1" as="geometry">
            <mxPoint x="1164" y="389" as="sourcePoint" />
            <mxPoint x="1337" y="485" as="targetPoint" />
          </mxGeometry>
        </mxCell>
        <mxCell id="i-JdXVQl8PYU1AqyCl5T-264" style="rounded=0;orthogonalLoop=1;jettySize=auto;html=1;entryX=1;entryY=0.5;entryDx=0;entryDy=0;exitX=0;exitY=0.384;exitDx=0;exitDy=0;exitPerimeter=0;strokeColor=#ff0000;dashed=1;dashPattern=8 8;" edge="1" parent="1" source="i-JdXVQl8PYU1AqyCl5T-258">
          <mxGeometry relative="1" as="geometry">
            <mxPoint x="1284" y="747.15" as="sourcePoint" />
            <mxPoint x="1100" y="818.15" as="targetPoint" />
          </mxGeometry>
        </mxCell>
      </root>
    </mxGraphModel>
  </diagram>
</mxfile>
